<?xml version="1.0" encoding="UTF-8"?>
<svg width="28px" height="27px" viewBox="0 0 28 27" version="1.1" xmlns="http://www.w3.org/2000/svg" xmlns:xlink="http://www.w3.org/1999/xlink">
    <!-- Generator: Sketch 52.2 (67145) - http://www.bohemiancoding.com/sketch -->
    <title>icons8-phone</title>
    <desc>Created with Sketch.</desc>
    <g id="Symbols" stroke="none" stroke-width="1" fill="none" fill-rule="evenodd">
        <g id="Advantades" transform="translate(-886.000000, -51.000000)" fill="#000000" fill-rule="nonzero">
            <g id="Group-16">
                <g>
                    <g id="Group-12" transform="translate(790.000000, 51.000000)">
                        <g id="icons8-phone" transform="translate(96.000000, 0.000000)">
                            <path d="M6.65625,0 C6.132813,0 5.617188,0.1875 5.1875,0.53125 L5.125,0.5625 L5.09375,0.59375 L1.96875,3.8125 L2,3.84375 C1.035156,4.734375 0.738281,6.066406 1.15625,7.21875 C1.160156,7.226563 1.152344,7.242188 1.15625,7.25 C2.003906,9.675781 4.171875,14.359375 8.40625,18.59375 C12.65625,22.84375 17.402344,24.925781 19.75,25.84375 L19.78125,25.84375 C20.996094,26.25 22.3125,25.960938 23.25,25.15625 L26.40625,22 C27.234375,21.171875 27.234375,19.734375 26.40625,18.90625 L22.34375,14.84375 L22.3125,14.78125 C21.484375,13.953125 20.015625,13.953125 19.1875,14.78125 L17.1875,16.78125 C16.464844,16.433594 14.742188,15.542969 13.09375,13.96875 C11.457031,12.40625 10.621094,10.609375 10.3125,9.90625 L12.3125,7.90625 C13.152344,7.066406 13.167969,5.667969 12.28125,4.84375 L12.3125,4.8125 L12.21875,4.71875 L8.21875,0.59375 L8.1875,0.5625 L8.125,0.53125 C7.695313,0.1875 7.179688,0 6.65625,0 Z M6.65625,2 C6.730469,2 6.804688,2.035156 6.875,2.09375 L10.875,6.1875 L10.96875,6.28125 C10.960938,6.273438 11.027344,6.378906 10.90625,6.5 L8.40625,9 L7.9375,9.4375 L8.15625,10.0625 C8.15625,10.0625 9.304688,13.136719 11.71875,15.4375 L11.9375,15.625 C14.261719,17.746094 17,18.90625 17,18.90625 L17.625,19.1875 L20.59375,16.21875 C20.765625,16.046875 20.734375,16.046875 20.90625,16.21875 L25,20.3125 C25.171875,20.484375 25.171875,20.421875 25,20.59375 L21.9375,23.65625 C21.476563,24.050781 20.988281,24.132813 20.40625,23.9375 C18.140625,23.046875 13.738281,21.113281 9.8125,17.1875 C5.855469,13.230469 3.789063,8.742188 3.03125,6.5625 C2.878906,6.15625 2.988281,5.554688 3.34375,5.25 L3.40625,5.1875 L6.4375,2.09375 C6.507813,2.035156 6.582031,2 6.65625,2 Z" id="Shape"></path>
                        </g>
                    </g>
                </g>
            </g>
        </g>
    </g>
</svg>