<?xml version="1.0" encoding="UTF-8"?>
<svg width="28px" height="26px" viewBox="0 0 28 26" version="1.1" xmlns="http://www.w3.org/2000/svg" xmlns:xlink="http://www.w3.org/1999/xlink">
    <!-- Generator: Sketch 52.2 (67145) - http://www.bohemiancoding.com/sketch -->
    <title>Fill 1</title>
    <desc>Created with Sketch.</desc>
    <g id="Symbols" stroke="none" stroke-width="1" fill="none" fill-rule="evenodd">
        <g id="Advantades" transform="translate(-1218.000000, -51.000000)" fill="#000000">
            <g id="Group-14-Copy" transform="translate(1153.000000, 51.000000)">
                <path d="M72.97264,18.02632 L78.52,18.02632 L78.52,7.97264 L72.97264,7.97264 L72.97264,18.02632 Z M71.00808,19.99192 L80.48352,19.99192 L80.48352,6.00912 L71.00808,6.00912 L71.00808,19.99192 Z M86.49264,15.11848 L86.49264,21.03192 L90.41656,21.03192 L86.49264,12.82528 L86.49264,15.11848 Z M66.96456,24.03648 L84.52912,24.03648 L84.52912,1.96456 L66.96456,1.96456 L66.96456,24.03648 Z M67.48456,26 C66.13776,26 65,24.86224 65,23.51648 L65,2.48456 C65,1.13776 66.13776,0 67.48456,0 L84.00808,0 C85.35488,0 86.49264,1.13776 86.49264,2.48456 L86.49264,8.27112 L92.50176,20.83744 L92.50176,22.99648 L86.49264,22.99648 L86.49264,23.51648 C86.49264,24.86224 85.35488,26 84.00808,26 L67.48456,26 Z" id="Fill-1"></path>
            </g>
        </g>
    </g>
</svg>