<?xml version="1.0" encoding="UTF-8"?>
<svg width="32px" height="22px" viewBox="0 0 32 22" version="1.1" xmlns="http://www.w3.org/2000/svg" xmlns:xlink="http://www.w3.org/1999/xlink">
    <!-- Generator: Sketch 52.2 (67145) - http://www.bohemiancoding.com/sketch -->
    <title>icons8-in_transit</title>
    <desc>Created with Sketch.</desc>
    <g id="Symbols" stroke="none" stroke-width="1" fill="none" fill-rule="evenodd">
        <g id="Advantades" transform="translate(-524.000000, -54.000000)" fill="#000000" fill-rule="nonzero">
            <g id="Group-16">
                <g>
                    <g id="Group-15" transform="translate(456.000000, 54.000000)">
                        <g id="icons8-in_transit" transform="translate(68.000000, 0.000000)">
                            <path d="M0,0 L0,2 L19,2 L19,17 L12.84375,17 C12.398438,15.28125 10.851563,14 9,14 C7.148438,14 5.601563,15.28125 5.15625,17 L4,17 L4,12 L2,12 L2,19 L5.15625,19 C5.601563,20.71875 7.148438,22 9,22 C10.851563,22 12.398438,20.71875 12.84375,19 L21.15625,19 C21.601563,20.71875 23.148438,22 25,22 C26.851563,22 28.398438,20.71875 28.84375,19 L32,19 L32,10.84375 L31.9375,10.6875 L29.9375,4.6875 L29.71875,4 L21,4 L21,0 L0,0 Z M1,4 L1,6 L10,6 L10,4 L1,4 Z M21,6 L28.28125,6 L30,11.125 L30,17 L28.84375,17 C28.398438,15.28125 26.851563,14 25,14 C23.148438,14 21.601563,15.28125 21.15625,17 L21,17 L21,6 Z M2,8 L2,10 L8,10 L8,8 L2,8 Z M9,16 C10.117188,16 11,16.882813 11,18 C11,19.117188 10.117188,20 9,20 C7.882813,20 7,19.117188 7,18 C7,16.882813 7.882813,16 9,16 Z M25,16 C26.117188,16 27,16.882813 27,18 C27,19.117188 26.117188,20 25,20 C23.882813,20 23,19.117188 23,18 C23,16.882813 23.882813,16 25,16 Z" id="Shape"></path>
                        </g>
                    </g>
                </g>
            </g>
        </g>
    </g>
</svg>