<?xml version="1.0" encoding="UTF-8"?>
<svg width="33px" height="33px" viewBox="0 0 33 33" version="1.1" xmlns="http://www.w3.org/2000/svg" xmlns:xlink="http://www.w3.org/1999/xlink">
    <!-- Generator: Sketch 52.2 (67145) - http://www.bohemiancoding.com/sketch -->
    <title>Youtube</title>
    <desc>Created with Sketch.</desc>
    <g id="Symbols" stroke="none" stroke-width="1" fill="none" fill-rule="evenodd">
        <g id="Footer" transform="translate(-829.000000, -113.000000)">
            <g id="Group-9">
                <g transform="translate(434.000000, 70.000000)">
                    <g id="Group-3" transform="translate(289.000000, 0.000000)">
                        <g id="Group" transform="translate(0.000000, 43.000000)">
                            <g id="Youtube" transform="translate(106.000000, 0.000000)">
                                <path d="M3.92259226,0 L29.0774077,0 C31.2439244,0 33,1.75247525 33,3.91359136 L33,29.0864086 C33,31.2484248 31.2439244,33 29.0774077,33 L3.92259226,33 C1.75607561,33 0,31.2484248 0,29.0864086 L0,3.91359136 C0,1.75247525 1.75607561,0 3.92259226,0 Z M26.40575,10.261187 C25.569,9.43040364 24.6315,9.42637531 24.20175,9.37779842 C21.12375,9.16666667 16.505,9.16666667 16.505,9.16666667 C16.495,9.16666667 11.8765,9.16666667 8.79825,9.37779842 C8.368,9.42613835 7.431,9.43016668 6.59425,10.261187 C5.9345,10.8936344 5.71975,12.3305625 5.71975,12.3305625 C5.71975,12.3305625 5.5,14.0179578 5.5,15.7055901 L5.5,17.287775 C5.5,18.9746964 5.71975,20.6625656 5.71975,20.6625656 C5.71975,20.6625656 5.9345,22.0990198 6.59425,22.7317042 C7.43125,23.5629615 8.5305,23.5364219 9.01975,23.6236233 C10.78,23.7838086 16.50025,23.8333333 16.50025,23.8333333 C16.50025,23.8333333 21.12275,23.8266984 24.20175,23.6158036 C24.63225,23.5669898 25.56975,23.5629615 26.406,22.7319412 C27.066,22.0990198 27.28075,20.6628026 27.28075,20.6628026 C27.28075,20.6628026 27.5,18.9751703 27.5,17.287775 L27.5,15.7055901 C27.5,14.0179578 27.2805,12.3305625 27.2805,12.3305625 C27.2805,12.3305625 27.0655,10.8936344 26.40575,10.261187 Z" id="Combined-Shape" fill="#A70F17"></path>
                                <path d="M27.2805,12.3305625 C27.2805,12.3305625 27.0655,10.8936344 26.40575,10.261187 C25.569,9.43040364 24.6315,9.42637531 24.20175,9.37779842 C21.12375,9.16666667 16.505,9.16666667 16.505,9.16666667 L16.495,9.16666667 C16.495,9.16666667 11.8765,9.16666667 8.79825,9.37779842 C8.368,9.42613835 7.431,9.43016668 6.59425,10.261187 C5.9345,10.8936344 5.71975,12.3305625 5.71975,12.3305625 C5.71975,12.3305625 5.5,14.0179578 5.5,15.7055901 L5.5,17.287775 C5.5,18.9746964 5.71975,20.6625656 5.71975,20.6625656 C5.71975,20.6625656 5.9345,22.0990198 6.59425,22.7317042 C7.43125,23.5629615 8.5305,23.5364219 9.01975,23.6236233 C10.78,23.7838086 16.50025,23.8333333 16.50025,23.8333333 C16.50025,23.8333333 21.12275,23.8266984 24.20175,23.6158036 C24.63225,23.5669898 25.56975,23.5629615 26.406,22.7319412 C27.066,22.0990198 27.28075,20.6628026 27.28075,20.6628026 C27.28075,20.6628026 27.5,18.9751703 27.5,17.287775 L27.5,15.7055901 C27.5,14.0179578 27.2805,12.3305625 27.2805,12.3305625 Z" id="Fill-1" fill="#FFFFFF"></path>
                                <polygon id="Fill-1" fill="#A70F17" points="13.9505 19.4784743 13.94975 13.0715378 20.44975 16.2859062"></polygon>
                            </g>
                        </g>
                    </g>
                </g>
            </g>
        </g>
    </g>
</svg>