<?xml version="1.0" encoding="UTF-8"?>
<svg width="477px" height="25px" viewBox="0 0 477 25" version="1.1" xmlns="http://www.w3.org/2000/svg" xmlns:xlink="http://www.w3.org/1999/xlink">
    <!-- Generator: Sketch 52.2 (67145) - http://www.bohemiancoding.com/sketch -->
    <title>Group 26</title>
    <desc>Created with Sketch.</desc>
    <g id="Symbols" stroke="none" stroke-width="1" fill="none" fill-rule="evenodd">
        <g id="Header" transform="translate(-51.000000, -70.000000)" fill="#FEFEFE">
            <g id="Group-26" transform="translate(51.000000, 70.000000)">
                <path d="M224.9316,21.9111 C226.8476,21.9111 228.4706,21.2301 229.8006,19.8701 C231.1306,18.5091 231.7956,16.8711 231.7956,14.9551 C231.7956,12.9791 231.1456,11.3261 229.8466,9.9951 C228.5456,8.6651 226.9076,8.0001 224.9316,8.0001 C222.9706,8.0001 221.3356,8.6691 220.0286,10.0071 C218.7216,11.3451 218.0676,12.9941 218.0676,14.9551 C218.0676,16.8711 218.7326,18.5091 220.0626,19.8701 C221.3926,21.2301 223.0156,21.9111 224.9316,21.9111 M224.9316,5.9931 C227.4096,5.9931 229.5306,6.8681 231.2936,8.6161 C233.0576,10.3641 233.9396,12.4771 233.9396,14.9551 C233.9396,17.4941 233.0726,19.6231 231.3396,21.3411 C229.6066,23.0591 227.4706,23.9171 224.9316,23.9171 C222.3926,23.9171 220.2566,23.0591 218.5236,21.3411 C216.7906,19.6231 215.9236,17.4941 215.9236,14.9551 C215.9236,12.4771 216.8056,10.3641 218.5696,8.6161 C220.3326,6.8681 222.4526,5.9931 224.9316,5.9931" id="Fill-1"></path>
                <polygon id="Fill-3" points="246.5273 23.5527 246.5273 5.5507 259.4343 19.0737 259.4343 6.3587 261.5773 6.3587 261.5773 24.2597 248.6703 10.7367 248.6703 23.5527"></polygon>
                <polygon id="Fill-5" points="277.4951 6.3584 277.4951 21.5914 282.7171 21.5914 282.7171 23.5524 275.3511 23.5524 275.3511 6.3584"></polygon>
                <polygon id="Fill-7" points="294.78 23.5529 296.924 23.5529 296.924 6.3589 294.78 6.3589"></polygon>
                <polygon id="Fill-9" points="310.6528 23.5527 310.6528 5.5507 323.5598 19.0737 323.5598 6.3587 325.7038 6.3587 325.7038 24.2597 312.7958 10.7367 312.7958 23.5527"></polygon>
                <polygon id="Fill-10" points="339.477 23.5527 339.477 6.3587 348.713 6.3587 348.713 8.3197 341.621 8.3197 341.621 13.1307 348.508 13.1307 348.508 15.0927 341.621 15.0927 341.621 21.5917 348.713 21.5917 348.713 23.5527"></polygon>
                <path d="M380.3022,8.5932 L378.5922,9.6192 C377.9532,8.5402 377.0332,8.0002 375.8332,8.0002 C375.1032,8.0002 374.4562,8.2202 373.8942,8.6612 C373.2712,9.1332 372.9592,9.7262 372.9592,10.4402 C372.9592,11.4582 373.7572,12.2802 375.3542,12.9032 L376.5852,13.3822 C377.9532,13.9142 378.9722,14.5372 379.6412,15.2522 C380.4472,16.1182 380.8502,17.2202 380.8502,18.5582 C380.8502,20.1092 380.3252,21.3902 379.2762,22.4012 C378.2272,23.4122 376.9202,23.9172 375.3542,23.9172 C373.9552,23.9172 372.7652,23.4652 371.7852,22.5602 C370.8042,21.6562 370.2232,20.5042 370.0402,19.1062 L372.2072,18.6502 C372.1922,19.5922 372.5072,20.3712 373.1532,20.9872 C373.7992,21.6032 374.5942,21.9112 375.5362,21.9112 C376.4482,21.9112 377.2042,21.5842 377.8052,20.9302 C378.4062,20.2762 378.7062,19.4862 378.7062,18.5582 C378.7062,17.7222 378.3942,17.0232 377.7712,16.4602 C377.3452,16.0802 376.6682,15.6932 375.7412,15.2972 L374.5552,14.7962 C372.0622,13.7462 370.8162,12.2952 370.8162,10.4402 C370.8162,9.1022 371.3322,8.0082 372.3662,7.1562 C373.3392,6.3812 374.5102,5.9932 375.8782,5.9932 C377.8542,5.9932 379.3292,6.8602 380.3022,8.5932" id="Fill-11"></path>
                <polygon id="Fill-12" points="398.5458 8.3193 398.5458 23.5523 396.4018 23.5523 396.4018 8.3193 390.9028 8.3193 390.9028 6.3583 404.0448 6.3583 404.0448 8.3193"></polygon>
                <path d="M422.832,21.9111 C424.748,21.9111 426.371,21.2301 427.701,19.8701 C429.031,18.5091 429.696,16.8711 429.696,14.9551 C429.696,12.9791 429.046,11.3261 427.747,9.9951 C426.447,8.6651 424.809,8.0001 422.832,8.0001 C420.871,8.0001 419.236,8.6691 417.929,10.0071 C416.622,11.3451 415.968,12.9941 415.968,14.9551 C415.968,16.8711 416.633,18.5091 417.963,19.8701 C419.293,21.2301 420.916,21.9111 422.832,21.9111 M422.832,5.9931 C425.31,5.9931 427.431,6.8681 429.195,8.6161 C430.958,10.3641 431.84,12.4771 431.84,14.9551 C431.84,17.4941 430.973,19.6231 429.24,21.3411 C427.507,23.0591 425.371,23.9171 422.832,23.9171 C420.293,23.9171 418.157,23.0591 416.424,21.3411 C414.691,19.6231 413.825,17.4941 413.825,14.9551 C413.825,12.4771 414.706,10.3641 416.47,8.6161 C418.233,6.8681 420.354,5.9931 422.832,5.9931" id="Fill-13"></path>
                <path d="M446.7763,8.2734 L446.7763,14.4994 L447.4603,14.4994 C450.5013,14.4994 452.0213,13.4504 452.0213,11.3524 C452.0213,9.2994 450.4633,8.2734 447.3463,8.2734 L446.7763,8.2734 Z M449.9013,16.0724 L455.3273,23.5524 L452.7283,23.5524 L447.6653,16.2784 L446.7763,16.2784 L446.7763,23.5524 L444.6323,23.5524 L444.6323,6.3584 L447.2323,6.3584 C449.3303,6.3584 450.8423,6.6244 451.7703,7.1564 C452.4843,7.5664 453.0403,8.1414 453.4353,8.8784 C453.8303,9.6154 454.0273,10.4104 454.0273,11.2614 C454.0273,12.5234 453.6483,13.6024 452.8873,14.4994 C452.1283,15.3964 451.1313,15.9204 449.9013,16.0724 Z" id="Fill-14"></path>
                <polygon id="Fill-15" points="467.7338 23.5527 467.7338 6.3587 476.9698 6.3587 476.9698 8.3197 469.8778 8.3197 469.8778 13.1307 476.7648 13.1307 476.7648 15.0927 469.8778 15.0927 469.8778 21.5917 476.9698 21.5917 476.9698 23.5527"></polygon>
                <path d="M141.1176,14.9038 C141.1176,18.6798 138.0766,21.7508 134.3396,21.7508 C130.6016,21.7508 127.5606,18.6798 127.5606,14.9038 C127.5606,11.1288 130.6016,8.0598 134.3396,8.0598 C138.0766,8.0598 141.1176,11.1288 141.1176,14.9038 M134.3396,5.9798 C129.3816,5.9798 125.3476,9.9938 125.3476,14.9268 C125.3476,19.8348 129.3816,23.8278 134.3396,23.8278 C139.2956,23.8278 143.3296,19.8348 143.3296,14.9268 C143.3296,9.9938 139.2956,5.9798 134.3396,5.9798" id="Fill-16"></path>
                <polygon id="Fill-17" points="37.5912 13.3803 28.0372 13.3803 28.0372 6.5073 25.8232 6.5073 25.8232 23.7723 28.0372 23.7723 28.0372 15.4603 37.5912 15.4603 37.5912 23.7723 39.8042 23.7723 39.8042 6.5073 37.5912 6.5073"></polygon>
                <path d="M58.7792,10.7504 L61.3652,16.9534 L56.1312,16.9534 L58.7792,10.7504 Z M50.8582,23.6084 L50.7562,23.8384 L53.1832,23.8384 L55.2262,19.0304 L62.2442,19.0304 L64.2432,23.8384 L66.6882,23.8384 L58.8292,5.5184 L50.8582,23.6084 Z" id="Fill-18"></path>
                <polygon id="Fill-19" points="78.102 23.8669 80.315 23.8669 80.315 6.6029 78.102 6.6029"></polygon>
                <polygon id="Fill-20" points="166.0326 19.4794 152.8246 5.6394 152.8246 23.8684 155.0376 23.8684 155.0376 11.0624 168.2456 24.8754 168.2456 6.6044 166.0326 6.6044"></polygon>
                <path d="M194.6713,14.8564 L194.6673,14.6974 L187.2913,14.6974 L187.2913,16.7744 L192.3203,16.7744 C192.2143,19.7594 189.2333,21.7504 186.4433,21.7504 C184.8273,21.7504 183.0723,20.9624 181.7533,19.6424 C180.5073,18.3754 179.8223,16.7174 179.8223,14.9724 C179.8223,11.1614 182.8533,8.0594 186.5793,8.0594 C188.8853,8.0594 190.7983,9.1094 192.2643,11.1814 L192.3723,11.3344 L193.9863,9.8224 L193.8953,9.7064 C191.9943,7.2324 189.5393,5.9794 186.6003,5.9794 C181.6433,5.9794 177.6093,10.0034 177.6093,14.9494 C177.6093,19.7634 181.6753,23.8284 186.4883,23.8284 C188.9313,23.8284 191.3213,22.7484 192.8793,20.9414 C194.4363,19.1354 194.7193,17.2764 194.6713,14.8564" id="Fill-21"></path>
                <polygon id="Fill-22" points="61.2841 0 57.7481 1.767 57.7261 3.628 61.2631 1.863"></polygon>
                <polygon id="Fill-23" points="137.8163 3.7236 137.8413 1.8646 134.5383 0.2156 134.4663 0.1796 131.1013 1.8876 131.0793 3.7506 134.4553 2.0446"></polygon>
                <polygon id="Fill-24" points="-0.0001 8.3833 6.5069 8.3833 6.5069 23.5703 8.7229 23.5703 8.7229 8.3833 15.2739 8.3833 15.2739 6.3033 -0.0001 6.3033"></polygon>
                <path d="M115.4618,19.6162 C113.7428,21.0232 112.2228,21.6522 110.5418,21.6522 C106.8808,21.6522 103.7888,18.4972 103.7888,14.7632 C103.7888,11.0302 106.8598,7.8762 110.4958,7.8762 C112.3668,7.8762 114.2178,8.6802 115.5768,10.0842 L115.6948,10.2052 L117.0158,8.8442 L116.9278,8.7322 C115.4938,6.9112 112.5308,5.7852 110.6088,5.7852 C105.6218,5.7852 101.5638,9.8442 101.5638,14.8302 C101.5638,19.7422 105.6218,23.7392 110.6088,23.7392 C112.9468,23.7392 115.0658,22.9472 116.9048,21.3842 L117.0258,21.2782 L115.5888,19.5122 L115.4618,19.6162 Z" id="Fill-25"></path>
            </g>
        </g>
    </g>
</svg>